<svg id="icon" height="512" viewBox="0 0 512 512" width="512" xmlns="http://www.w3.org/2000/svg"><path d="m59.511 252.337v171.242h208.271v-241.16l-64.414 59.898z" fill="#ccc"/><path d="m340.931 112.177v-.119l.061.059.061-.059v.119l94.205 92.207v219.195h-94.205-.122-94.205v-219.195z" fill="#f2f2f2"/><path d="m341.053 112.058-.061.059-.061-.059v.119l-94.205 92.207v53.527l94.205-96.993 94.327 97.115v-53.649l-94.205-92.207z" fill="#ccc"/><path d="m193.678 235.672 147.253-147.252 147.496 147.252-17.434 17.435-129.94-129.94-132.27 134.972z" fill="#fff"/><path d="m340.931 88.42h-159.2a26.344 26.344 0 0 0 -18.631 7.716l-139.533 139.536h170.111z" fill="#fff"/><path d="m208.783 258.139h-176.429l-8.787-22.467h170.111z" fill="#fff"/><path d="m307.552 307.365h67a0 0 0 0 1 0 0v82.714a33.5 33.5 0 0 1 -33.5 33.5 33.5 33.5 0 0 1 -33.5-33.5v-82.714a0 0 0 0 1 0 0z" fill="#53737f" transform="matrix(-1 0 0 -1 682.105 730.944)"/><path d="m116.175 307.365h64.156v64.156h-64.156z" fill="#53737f" transform="matrix(-1 0 0 -1 296.506 678.885)"/><g fill="#333"><path d="m59.511 429.4h158.025a5.82 5.82 0 1 0 0-11.64h-152.204v-126.794a5.821 5.821 0 0 0 -11.641 0v132.614a5.82 5.82 0 0 0 5.82 5.82z"/><path d="m441.079 423.58v-155.761a5.821 5.821 0 0 0 -11.641 0v149.941h-49.064v-76.894a39.322 39.322 0 1 0 -78.643 0v76.894h-49.185v-149.941a5.821 5.821 0 0 0 -11.641 0v155.761a5.821 5.821 0 0 0 5.821 5.82h188.533a5.82 5.82 0 0 0 5.82-5.82zm-72.346-5.82h-55.362v-76.894a27.681 27.681 0 1 1 55.362 0z"/><path d="m116.175 377.341h64.156a5.821 5.821 0 0 0 5.821-5.821v-64.156a5.821 5.821 0 0 0 -5.821-5.82h-64.156a5.82 5.82 0 0 0 -5.82 5.82v64.156a5.821 5.821 0 0 0 5.82 5.821zm5.825-64.157h52.516v52.516h-52.516z"/><path d="m74.258 258.139a5.821 5.821 0 0 0 5.82 5.821h22.086a5.821 5.821 0 1 0 0-11.641h-22.086a5.82 5.82 0 0 0 -5.82 5.82z"/><path d="m133.154 258.139a5.821 5.821 0 0 0 5.82 5.821h22.086a5.821 5.821 0 0 0 0-11.641h-22.086a5.82 5.82 0 0 0 -5.82 5.82z"/><path d="m19.494 231.515-.042.042c-.08.08-.135.172-.208.255a5.758 5.758 0 0 0 -.5.608 5.3 5.3 0 0 0 -.269.483c-.091.167-.191.329-.265.5a5.613 5.613 0 0 0 -.181.55c-.054.175-.118.346-.156.525s-.047.362-.067.544-.053.381-.056.575.025.385.042.578.019.36.052.54a5.747 5.747 0 0 0 .219.784c.032.1.044.194.081.29l.02.051.013.032 3.943 10.079a5.83 5.83 0 0 0 .518 1 5.825 5.825 0 0 0 .318 1.144l3.974 10.164a5.822 5.822 0 0 0 5.421 3.7h10.916a5.821 5.821 0 0 0 0-11.641h-6.94l-2.527-6.463a5.866 5.866 0 0 0 -.528-1.029 5.849 5.849 0 0 0 -.311-1.111l-2.588-6.615 5.027-5.03a5.819 5.819 0 1 0 -8.23-8.23l-7.658 7.66z"/><path d="m244.043 88.42a5.82 5.82 0 0 0 -5.82-5.82h-21.184a5.82 5.82 0 1 0 0 11.64h21.184a5.82 5.82 0 0 0 5.82-5.82z"/><path d="m300.532 88.42a5.821 5.821 0 0 0 -5.821-5.82h-21.183a5.82 5.82 0 1 0 0 11.64h21.183a5.821 5.821 0 0 0 5.821-5.82z"/><path d="m163.1 101.956a5.8 5.8 0 0 0 4.115-1.7 20.387 20.387 0 0 1 14.513-6.011 5.82 5.82 0 1 0 0-11.64 31.95 31.95 0 0 0 -22.744 9.421 5.82 5.82 0 0 0 4.116 9.935z"/><path d="m136.26 114.749-13.637 13.637a5.819 5.819 0 1 0 8.23 8.23l13.637-13.637a5.819 5.819 0 0 0 -8.23-8.23z"/><path d="m54.011 211.049a5.8 5.8 0 0 0 4.115-1.705l13.637-13.637a5.82 5.82 0 0 0 -8.23-8.231l-13.633 13.637a5.821 5.821 0 0 0 4.115 9.936z"/><path d="m94.49 172.98 13.637-13.637a5.82 5.82 0 0 0 -8.231-8.23l-13.636 13.637a5.819 5.819 0 1 0 8.23 8.23z"/><path d="m286.463 148.708a5.8 5.8 0 0 0 4.115-1.708l13.375-13.375a5.82 5.82 0 0 0 -8.23-8.231l-13.375 13.376a5.82 5.82 0 0 0 4.115 9.935z"/><path d="m227.816 201.535a5.82 5.82 0 0 0 -8.231 0l-13.375 13.376a5.819 5.819 0 1 0 8.23 8.23l13.376-13.375a5.82 5.82 0 0 0 0-8.231z"/><path d="m55.709 241.493h18.916a5.821 5.821 0 0 0 0-11.641h-18.916a5.821 5.821 0 0 0 0 11.641z"/><path d="m128.462 241.493a5.821 5.821 0 0 0 0-11.641h-18.916a5.821 5.821 0 0 0 0 11.641z"/><path d="m188.12 235.672a5.821 5.821 0 0 0 -5.821-5.82h-18.915a5.821 5.821 0 1 0 0 11.641h18.916a5.821 5.821 0 0 0 5.82-5.821z"/><path d="m265.884 163.466a5.819 5.819 0 0 0 -8.23 0l-13.375 13.376a5.819 5.819 0 1 0 8.23 8.23l13.375-13.372a5.818 5.818 0 0 0 0-8.234z"/><path d="m344.542 100.249a5.82 5.82 0 1 0 8.224-8.238l-7.642-7.63a5.818 5.818 0 0 0 -1.99-1.348c-.086-.035-.177-.051-.265-.082a4.443 4.443 0 0 0 -1.621-.321c-.1 0-.2-.03-.3-.03h-.016a5.832 5.832 0 0 0 -1.14.115c-.159.032-.306.092-.459.136a5.857 5.857 0 0 0 -.629.2c-.169.07-.321.169-.481.254a5.507 5.507 0 0 0 -.522.284 5.752 5.752 0 0 0 -.612.5c-.088.078-.186.137-.27.221l-1.947 1.946a5.886 5.886 0 0 0 -.484.593 5.739 5.739 0 0 0 -.593.485l-13.378 13.366a5.819 5.819 0 1 0 8.23 8.23l12.287-12.287z"/><path d="m385.08 138.318a5.82 5.82 0 0 0 4.112-9.939l-13.659-13.639a5.821 5.821 0 1 0 -8.225 8.239l13.66 13.638a5.8 5.8 0 0 0 4.112 1.701z"/><path d="m457.936 211.053a5.821 5.821 0 0 0 4.112-9.94l-13.66-13.638a5.821 5.821 0 0 0 -8.224 8.239l13.659 13.638a5.806 5.806 0 0 0 4.113 1.701z"/><path d="m403.729 151.115a5.821 5.821 0 0 0 .007 8.232l13.66 13.637a5.821 5.821 0 0 0 8.224-8.239l-13.66-13.637a5.823 5.823 0 0 0 -8.231.007z"/><path d="m466.878 257.223a5.821 5.821 0 0 0 8.23 0l7.716-7.715a5.8 5.8 0 0 0 .864-1.138 5.742 5.742 0 0 0 1.138-.865l7.716-7.715a5.821 5.821 0 0 0 0-8.235l-7.723-7.71a5.821 5.821 0 1 0 -8.225 8.239l3.6 3.593-3.6 3.6a5.287 5.287 0 0 1 -2 2l-3.6 3.6-3.6-3.6a5.821 5.821 0 1 0 -8.23 8.233z"/><path d="m388.275 178.62a5.82 5.82 0 1 0 8.23-8.231l-16.358-16.358a5.82 5.82 0 0 0 -8.231 8.23z"/><path d="m440.127 214.011-16.358-16.358a5.82 5.82 0 0 0 -8.231 8.23l16.362 16.359a5.82 5.82 0 1 0 8.23-8.231z"/><path d="m333.414 136.781a5.8 5.8 0 0 0 4.156-1.747l3.524-3.595 3.558 3.56a5.821 5.821 0 0 0 8.234-8.23l-7.716-7.718a5.826 5.826 0 0 0 -4.117-1.7h-.028a5.814 5.814 0 0 0 -4.128 1.747l-7.639 7.794a5.82 5.82 0 0 0 4.156 9.894z"/><path d="m288.846 182.26a5.8 5.8 0 0 0 4.154-1.746l16.713-17.055a5.819 5.819 0 1 0 -8.312-8.147l-16.714 17.054a5.821 5.821 0 0 0 4.157 9.894z"/><path d="m244.277 227.739a5.807 5.807 0 0 0 4.157-1.746l16.713-17.054a5.82 5.82 0 1 0 -8.313-8.148l-16.713 17.054a5.82 5.82 0 0 0 4.156 9.894z"/><path d="m212.263 246.27-5.927 6.049h-8.466a5.821 5.821 0 0 0 0 11.641h10.913a5.819 5.819 0 0 0 1.147-.116c.189-.038.364-.109.546-.164s.37-.1.548-.17a5.748 5.748 0 0 0 .653-.349c.118-.068.243-.117.356-.193a5.8 5.8 0 0 0 .882-.734c.008-.008.018-.013.026-.021l7.638-7.8a5.821 5.821 0 0 0 -8.316-8.148z"/></g></svg>